<?xml version="1.0" standalone="no"?>
<!DOCTYPE svg PUBLIC "-//W3C//DTD SVG 20010904//EN"
 "http://www.w3.org/TR/2001/REC-SVG-20010904/DTD/svg10.dtd">
<svg version="1.0" xmlns="http://www.w3.org/2000/svg"
 width="700.000000pt" height="700.000000pt" viewBox="0 0 700.000000 700.000000"
 preserveAspectRatio="xMidYMid meet">
<metadata>
Created by potrace 1.14, written by Peter Selinger 2001-2017
</metadata>
<g transform="translate(0.000000,700.000000) scale(0.100000,-0.100000)"
fill="#000000" stroke="none">
<path d="M3215 6990 c-848 -76 -1598 -424 -2190 -1015 -538 -537 -880 -1219
-989 -1975 -215 -1488 543 -2947 1883 -3624 698 -353 1507 -461 2282 -305 720
145 1389 522 1881 1063 896 984 1159 2373 686 3624 -61 161 -206 454 -298 600
-152 243 -395 535 -597 718 -546 497 -1191 797 -1923 895 -167 23 -575 33
-735 19z m30 -1825 c21 -11 57 -37 78 -58 128 -128 110 -379 -42 -601 -73
-106 -218 -211 -360 -262 -42 -15 -78 -29 -80 -30 -4 -4 44 -150 81 -243 16
-40 79 -184 140 -320 229 -507 289 -718 289 -1008 0 -163 -19 -295 -61 -424
-159 -486 -581 -793 -1145 -834 -403 -30 -801 160 -998 477 -202 323 -210 701
-24 1060 126 243 333 419 582 494 78 23 109 27 230 28 153 1 200 -8 299 -56
205 -100 341 -293 377 -538 23 -160 -9 -240 -95 -240 -76 1 -99 36 -102 152
-7 241 -138 421 -344 474 -74 19 -207 14 -297 -10 -336 -91 -583 -441 -583
-826 0 -133 21 -223 80 -345 131 -273 380 -438 703 -467 335 -30 668 83 885
300 123 122 210 277 260 460 23 88 26 115 26 282 1 144 -3 204 -18 270 -30
141 -98 333 -196 555 -158 359 -211 486 -251 605 -22 64 -44 114 -50 112 -31
-8 -415 -1 -484 8 -431 60 -792 298 -1019 671 -25 42 -58 102 -72 133 -23 50
-24 60 -14 91 14 42 46 66 90 67 50 2 77 -21 116 -96 192 -367 507 -601 893
-662 66 -10 152 -14 276 -12 l180 3 6 145 c5 115 12 164 33 235 64 213 183
355 349 415 70 26 204 23 262 -5z m2621 6 c59 -27 112 -77 141 -135 35 -68 43
-200 18 -296 -36 -138 -138 -293 -248 -376 -60 -45 -166 -103 -216 -119 -13
-4 -39 -14 -57 -21 l-33 -14 39 -114 c41 -118 76 -202 227 -541 195 -437 248
-635 247 -925 -1 -180 -21 -304 -70 -442 -147 -411 -503 -700 -967 -785 -127
-23 -372 -22 -487 1 -483 101 -812 479 -837 961 -6 127 10 236 57 380 112 340
368 595 676 676 110 28 278 35 372 15 291 -62 502 -322 519 -641 8 -141 -16
-185 -102 -185 -27 0 -44 8 -64 28 -26 25 -28 35 -33 132 -19 358 -287 547
-643 455 -199 -51 -386 -215 -490 -429 -70 -142 -88 -224 -88 -396 -1 -132 2
-153 27 -230 93 -283 309 -484 606 -561 104 -27 340 -32 460 -10 228 41 419
139 571 290 170 171 262 374 290 641 28 271 -37 527 -256 1015 -110 245 -155
352 -205 495 -29 83 -52 134 -60 132 -33 -7 -415 -1 -480 8 -475 67 -860 342
-1074 767 -44 89 -46 130 -8 165 67 62 122 41 182 -68 187 -340 441 -548 776
-635 109 -29 136 -32 326 -36 114 -3 217 -3 230 0 22 6 23 9 24 134 0 150 23
252 83 378 68 142 152 225 287 280 76 31 198 34 260 6z"/>
<path d="M3025 4971 c-22 -10 -61 -41 -87 -68 -87 -95 -126 -201 -135 -372
l-6 -114 29 7 c66 15 174 78 231 134 131 129 194 341 123 412 -26 26 -100 26
-155 1z"/>
<path d="M5655 4966 c-89 -41 -167 -153 -202 -289 -16 -63 -24 -239 -11 -252
10 -11 115 32 174 71 75 50 137 123 181 212 32 64 39 88 42 153 3 72 1 80 -23
103 -33 34 -92 34 -161 2z"/>
</g>
</svg>
